<svg width="12" height="16" viewBox="0 0 12 16" fill="none" xmlns="http://www.w3.org/2000/svg">
    <path d="M11.25 0H0.75C0.3125 0 0 0.34375 0 0.75V1.25C0 1.6875 0.3125 2 0.75 2C0.75 4.84375 2.34375 7.25 4.5 8C2.34375 8.78125 0.75 11.1875 0.75 14C0.3125 14 0 14.3438 0 14.75V15.25C0 15.6875 0.3125 16 0.75 16H11.25C11.6562 16 12 15.6875 12 15.25V14.75C12 14.3438 11.6562 14 11.25 14C11.25 11.1875 9.625 8.78125 7.46875 8C9.625 7.25 11.25 4.84375 11.25 2C11.6562 2 12 1.6875 12 1.25V0.75C12 0.34375 11.6562 0 11.25 0ZM9.25 14H2.75C2.75 11.5938 4.1875 9.5 6 9.5C7.78125 9.5 9.25 11.5938 9.25 14Z" fill="#F47921"/>
</svg>
